# xmcd CD database file
# Copyright (C) 1993-1996 Ti Kan
#
# Track frame offsets:
#	150
#	13791
#	14916
#	41526
#	63949
#	78176
#	104681
#	129494
#	140216
#	168266
#	171746
#	191194
#	201991
#	226351
#
# Disc length: 3284 seconds
#
# Revision: 1
# Processed by: cddbd v1.4b41PL1 Copyright (c) Steve Scherf et al.
# Submitted via: CDValet v3.01 - Copyright (c) 1997 Greg Leichner
#
DISCID=d10cd20e
DTITLE=Galactic - Coolin' Off
DYEAR=1900
DGENRE=
TTITLE0=Go Go
TTITLE1=Welcome to New Orleans
TTITLE2=Something's Wrong With This Picture
TTITLE3=Funky Bird
TTITLE4=Stax Jam
TTITLE5=Church
TTITLE6=On The One
TTITLE7=Mysery Tube
TTITLE8=Doo Rag
TTITLE9=Percussion Interlude
TTITLE10=Everybody Wants Some (Part 1)
TTITLE11=Everybody Wants Some (Part 2)
TTITLE12=Everybody Wants Some (Part 3)
TTITLE13=Goodnight
EXTD=
EXTT0=
EXTT1=
EXTT2=
EXTT3=
EXTT4=
EXTT5=
EXTT6=
EXTT7=
EXTT8=
EXTT9=
EXTT10=
EXTT11=
EXTT12=
EXTT13=
PLAYORDER=
